<?xml version="1.0" encoding="UTF-8"?>
<svg version="1.1" xmlns="http://www.w3.org/2000/svg" width="68" height="70">
<path d="M0 0 C22.44 0 44.88 0 68 0 C68 23.1 68 46.2 68 70 C45.56 70 23.12 70 0 70 C0 46.9 0 23.8 0 0 Z " fill="#FDFCFC" transform="translate(0,0)"/>
<path d="M0 0 C0.66 0.33 1.32 0.66 2 1 C2 1.66 2 2.32 2 3 C2.66 3 3.32 3 4 3 C4.495 8.445 4.495 8.445 5 14 C6.32 14.33 7.64 14.66 9 15 C10.01661577 19.37144782 10.16888759 22.00468076 8 26 C7.01 26.495 7.01 26.495 6 27 C8.97 27 11.94 27 15 27 C15.495 29.97 15.495 29.97 16 33 C17.32 33.33 18.64 33.66 20 34 C19.91306859 35.79258558 19.80489496 37.58415144 19.6875 39.375 C19.60048828 40.87160156 19.60048828 40.87160156 19.51171875 42.3984375 C19.34285156 43.25695313 19.17398438 44.11546875 19 45 C15.77208445 47.1519437 14.71599191 47.20086443 11 47 C11.47859241 48.60433809 11.95789558 50.20846416 12.4375 51.8125 C12.70433594 52.70582031 12.97117188 53.59914062 13.24609375 54.51953125 C13.80387873 56.35473055 14.39344575 58.18033726 15 60 C14.01 60 13.02 60 12 60 C11.505 57.03 11.505 57.03 11 54 C10.34 54 9.68 54 9 54 C8.34 52.35 7.68 50.7 7 49 C4.03 48.67 1.06 48.34 -2 48 C-2.33 46.02 -2.66 44.04 -3 42 C-4.2375 42.185625 -5.475 42.37125 -6.75 42.5625 C-9.76279577 42.94711223 -12.10010827 43.0874594 -15 42 C-15 42.66 -15 43.32 -15 44 C-17.97 44.495 -17.97 44.495 -21 45 C-21 43.35 -21 41.7 -21 40 C-21.99 40.495 -21.99 40.495 -23 41 C-22.67 39.68 -22.34 38.36 -22 37 C-25.96 36.67 -29.92 36.34 -34 36 C-34.25 25.375 -34.25 25.375 -32 22 C-30.68 22 -29.36 22 -28 22 C-28.37705078 21.22076172 -28.37705078 21.22076172 -28.76171875 20.42578125 C-29.7005876 18.28262493 -30.47812792 16.28265997 -31 14 C-29.875 11.1875 -29.875 11.1875 -28 9 C-27.56042969 8.47664063 -27.12085938 7.95328125 -26.66796875 7.4140625 C-24.5666787 5.63264096 -23.15801596 5.45193236 -20.4375 5.1875 C-19.25994141 5.05408203 -19.25994141 5.05408203 -18.05859375 4.91796875 C-16 5 -16 5 -14 7 C-13.67 6.01 -13.34 5.02 -13 4 C-9.60760491 -0.94724285 -5.51089314 -0.64896618 0 0 Z " fill="#F7D4E2" transform="translate(42,10)"/>
<path d="M0 0 C0.33 0.66 0.66 1.32 1 2 C2.65614657 2.38218767 4.32457024 2.71395102 6 3 C6.66 3.33 7.32 3.66 8 4 C7.67 5.98 7.34 7.96 7 10 C7.62648438 10.13277344 8.25296875 10.26554687 8.8984375 10.40234375 C9.71570313 10.57894531 10.53296875 10.75554688 11.375 10.9375 C12.18710937 11.11152344 12.99921875 11.28554688 13.8359375 11.46484375 C16 12 16 12 18 13 C18.4375 16.1875 18.4375 16.1875 18 20 C16.30188762 21.20827227 14.59284467 22.40736237 12.80859375 23.484375 C9.87475386 25.94297085 9.13146016 29.15176694 7.89453125 32.68359375 C6.78325506 35.56126527 5.54772325 37.24844026 3 39 C1.68 39 0.36 39 -1 39 C-1 37.35 -1 35.7 -1 34 C-1.99 34.495 -1.99 34.495 -3 35 C-2.67 33.68 -2.34 32.36 -2 31 C-5.96 30.67 -9.92 30.34 -14 30 C-14.25 19.375 -14.25 19.375 -12 16 C-9.375 15.8125 -9.375 15.8125 -7 16 C-6.99742188 15.26394531 -6.99484375 14.52789062 -6.9921875 13.76953125 C-6.68008525 5.89415108 -6.68008525 5.89415108 -4.59765625 3.15625 C-2.9375 1.8125 -2.9375 1.8125 0 0 Z " fill="#F8C3D7" transform="translate(22,16)"/>
<path d="M0 0 C2.97 0 5.94 0 9 0 C9.33 1.65 9.66 3.3 10 5 C11.32 5.33 12.64 5.66 14 6 C13.91306859 7.79258558 13.80489496 9.58415144 13.6875 11.375 C13.62949219 12.37273438 13.57148437 13.37046875 13.51171875 14.3984375 C13.34285156 15.25695313 13.17398438 16.11546875 13 17 C9.77208445 19.1519437 8.71599191 19.20086443 5 19 C5.47859241 20.60433809 5.95789558 22.20846416 6.4375 23.8125 C6.70433594 24.70582031 6.97117187 25.59914063 7.24609375 26.51953125 C7.80387873 28.35473055 8.39344575 30.18033726 9 32 C8.01 32 7.02 32 6 32 C5.67 30.02 5.34 28.04 5 26 C4.34 26 3.68 26 3 26 C2.814375 25.21625 2.62875 24.4325 2.4375 23.625 C1.17259468 20.60878998 1.17259468 20.60878998 -2.5625 19.8125 C-3.696875 19.544375 -4.83125 19.27625 -6 19 C-7.42662219 16.14675563 -7.31033868 14.16545451 -7 11 C-5.125 8.125 -5.125 8.125 -3 6 C-2.34 6 -1.68 6 -1 6 C-0.67 4.02 -0.34 2.04 0 0 Z " fill="#AD2F2C" transform="translate(48,38)"/>
<path d="M0 0 C0.66 0.33 1.32 0.66 2 1 C2.4375 4.1875 2.4375 4.1875 2 8 C0.36989302 9.65149946 -1.2895771 10.76100019 -3.2734375 11.95703125 C-5.16577858 13.00602207 -5.16577858 13.00602207 -7 15 C-7 14.34 -7 13.68 -7 13 C-7.804375 12.690625 -8.60875 12.38125 -9.4375 12.0625 C-12 11 -12 11 -13 10 C-13.46889952 3.66985646 -13.46889952 3.66985646 -11.6875 1.125 C-7.6681637 -1.55455753 -4.55364283 -0.82793506 0 0 Z " fill="#FBD89A" transform="translate(38,28)"/>
<path d="M0 0 C4.72340426 3.14893617 4.72340426 3.14893617 6 5 C5.6875 8.6875 5.6875 8.6875 5 12 C5.66 12 6.32 12 7 12 C7 12.66 7 13.32 7 14 C3.57767028 15.14077657 0.91326783 15.09815117 -2.6875 15.0625 C-4.45673828 15.04896484 -4.45673828 15.04896484 -6.26171875 15.03515625 C-7.16535156 15.02355469 -8.06898437 15.01195312 -9 15 C-7 12 -7 12 -6 11 C-6 10.01 -6 9.02 -6 8 C-5.34 8 -4.68 8 -4 8 C-3.67 7.01 -3.34 6.02 -3 5 C-2.01 5 -1.02 5 0 5 C0 3.35 0 1.7 0 0 Z " fill="#C43C2B" transform="translate(52,41)"/>
<path d="M0 0 C0.66 0 1.32 0 2 0 C2.66 1.65 3.32 3.3 4 5 C2.68 5.99 1.36 6.98 0 8 C1.32 11.3 2.64 14.6 4 18 C3.01 17.67 2.02 17.34 1 17 C0.67 15.35 0.34 13.7 0 12 C-1.258125 12.20625 -2.51625 12.4125 -3.8125 12.625 C-7.4014758 13.21335669 -7.75073878 13.16617415 -11 11 C-10.30152878 8.13959403 -9.50323894 5.54354271 -8 3 C-4.375 1.5625 -4.375 1.5625 -1 1 C-0.67 0.67 -0.34 0.34 0 0 Z " fill="#FAE4E9" transform="translate(39,40)"/>
<path d="M0 0 C1.45823212 -0.0270043 2.91660675 -0.04639787 4.375 -0.0625 C5.18710937 -0.07410156 5.99921875 -0.08570313 6.8359375 -0.09765625 C9 0 9 0 11 1 C11 1.66 11 2.32 11 3 C11.66 3 12.32 3 13 3 C13.33 6.63 13.66 10.26 14 14 C15.32 14.33 16.64 14.66 18 15 C19.0257259 19.41062136 19.03684712 21.92630576 17 26 C10.35384615 23.53846154 10.35384615 23.53846154 8.5625 20.8125 C8.376875 20.214375 8.19125 19.61625 8 19 C8.48082031 18.45859375 8.96164063 17.9171875 9.45703125 17.359375 C11.31323558 14.52102712 11.48737656 12.61207374 11.6875 9.25 C11.78611328 7.77273437 11.78611328 7.77273437 11.88671875 6.265625 C11.92410156 5.51796875 11.96148437 4.7703125 12 4 C9.60931266 2.89363605 9.60931266 2.89363605 7 2 C6.01 2.495 6.01 2.495 5 3 C2.99199544 2.71887936 0.98985949 2.38932033 -1 2 C-0.67 1.34 -0.34 0.68 0 0 Z " fill="#F8E1E8" transform="translate(33,10)"/>
<path d="M0 0 C1.98 0.66 3.96 1.32 6 2 C6.33 1.34 6.66 0.68 7 0 C8.54743259 4.1264869 7.81810158 7.77314186 7 12 C3.77208445 14.1519437 2.71599191 14.20086443 -1 14 C-0.52140759 15.60433809 -0.04210442 17.20846416 0.4375 18.8125 C0.70433594 19.70582031 0.97117187 20.59914063 1.24609375 21.51953125 C1.80387873 23.35473055 2.39344575 25.18033726 3 27 C2.01 27 1.02 27 0 27 C-0.33 25.02 -0.66 23.04 -1 21 C-1.66 21 -2.32 21 -3 21 C-3.185625 20.21625 -3.37125 19.4325 -3.5625 18.625 C-4.83961627 15.60623658 -4.83961627 15.60623658 -8.625 14.6875 C-9.73875 14.460625 -10.8525 14.23375 -12 14 C-12.33 12.68 -12.66 11.36 -13 10 C-12.01 10.495 -12.01 10.495 -11 11 C-11 11.66 -11 12.32 -11 13 C-3.08 12.505 -3.08 12.505 5 12 C5 11.34 5 10.68 5 10 C4.34 10 3.68 10 3 10 C3.061875 8.906875 3.12375 7.81375 3.1875 6.6875 C3.35597914 3.07873917 3.35597914 3.07873917 1.5 1.0625 C1.005 0.711875 0.51 0.36125 0 0 Z " fill="#B97F6D" transform="translate(54,43)"/>
<path d="M0 0 C0.66 0.33 1.32 0.66 2 1 C1.67 1.33 1.34 1.66 1 2 C0.76636119 3.84891946 0.58696365 5.70488031 0.4375 7.5625 C0.293125 9.356875 0.14875 11.15125 0 13 C3.96 13 7.92 13 12 13 C12 13.99 12 14.98 12 16 C12.66 16 13.32 16 14 16 C13.67 17.98 13.34 19.96 13 22 C13.99 22.33 14.98 22.66 16 23 C10.375 23.25 10.375 23.25 7 21 C6.8125 17.875 6.8125 17.875 7 15 C6.05125 15.020625 5.1025 15.04125 4.125 15.0625 C1 15 1 15 -1 14 C-1.02685938 11.85423363 -1.04633088 9.70837355 -1.0625 7.5625 C-1.07410156 6.36753906 -1.08570313 5.17257813 -1.09765625 3.94140625 C-1 1 -1 1 0 0 Z " fill="#F6DFEB" transform="translate(8,33)"/>
<path d="M0 0 C0.33 0 0.66 0 1 0 C1.96871379 5.37195829 1.96871379 5.37195829 2 8 C0.5625 9.8125 0.5625 9.8125 -1 11 C-1 11.99 -1 12.98 -1 14 C-1.66 14 -2.32 14 -3 14 C-2.649375 14.556875 -2.29875 15.11375 -1.9375 15.6875 C-0.78154007 18.53886783 -1.19032562 20.08517222 -2 23 C-2.66 23 -3.32 23 -4 23 C-6.44697666 18.63799813 -7.50269348 14.97306516 -8 10 C-5.69 9.34 -3.38 8.68 -1 8 C-0.67 5.36 -0.34 2.72 0 0 Z " fill="#F6FAE1" transform="translate(61,47)"/>
<path d="M0 0 C0 0.66 0 1.32 0 2 C-1.65 2.33 -3.3 2.66 -5 3 C-5.29359745 6.0534135 -5.4451258 8.95743422 -5 12 C-2.6816144 14.60910963 -2.6816144 14.60910963 0 16 C-2.33294775 16.04241723 -4.66702567 16.04092937 -7 16 C-8 15 -8 15 -8.0625 11.9375 C-8.041875 10.968125 -8.02125 9.99875 -8 9 C-8.99 8.67 -9.98 8.34 -11 8 C-10.67 7.01 -10.34 6.02 -10 5 C-9.34 5 -8.68 5 -8 5 C-7.87625 4.360625 -7.7525 3.72125 -7.625 3.0625 C-7.41875 2.381875 -7.2125 1.70125 -7 1 C-4.53721199 -0.231394 -2.7204945 -0.07159196 0 0 Z " fill="#F7C9B3" transform="translate(31,26)"/>
<path d="M0 0 C2.97 0 5.94 0 9 0 C9.375 2.75 9.375 2.75 9 6 C6.125 8.25 6.125 8.25 3 10 C2.34 10.66 1.68 11.32 1 12 C1 11.34 1 10.68 1 10 C0.01 9.67 -0.98 9.34 -2 9 C-1.67 8.01 -1.34 7.02 -1 6 C0.33333333 5.33333333 1.66666667 4.66666667 3 4 C3.33 3.01 3.66 2.02 4 1 C2.68 0.67 1.36 0.34 0 0 Z " fill="#EDC876" transform="translate(30,31)"/>
<path d="M0 0 C0.33 0.66 0.66 1.32 1 2 C2.175625 2.4640625 2.175625 2.4640625 3.375 2.9375 C6.00385244 4.00155932 7.25006647 4.81258308 9 7 C10 10 10 10 8.5625 13.1875 C7.7890625 14.5796875 7.7890625 14.5796875 7 16 C6.01 16 5.02 16 4 16 C3.67 16.99 3.34 17.98 3 19 C0.9375 19.6875 0.9375 19.6875 -1 20 C0 17 0 17 3 15.25 C6.37141222 13.22357771 6.37141222 13.22357771 6.875 9.25 C6.91625 8.1775 6.9575 7.105 7 6 C3.37 5.01 -0.26 4.02 -4 3 C-2.68 2.01 -1.36 1.02 0 0 Z " fill="#FAD1CA" transform="translate(33,23)"/>
<path d="M0 0 C2.97 0 5.94 0 9 0 C9.33 1.65 9.66 3.3 10 5 C10.66 5 11.32 5 12 5 C12 5.66 12 6.32 12 7 C11.236875 6.67 10.47375 6.34 9.6875 6 C6.07862044 4.6571611 3.61616489 5.00243727 0 6 C0 4.02 0 2.04 0 0 Z " fill="#9C4846" transform="translate(48,38)"/>
<path d="M0 0 C1.98 0.66 3.96 1.32 6 2 C6.33 1.34 6.66 0.68 7 0 C8.53166168 4.08443115 7.63081652 7.79455657 7 12 C6.34 12 5.68 12 5 12 C5 11.34 5 10.68 5 10 C4.34 10 3.68 10 3 10 C3.0928125 8.3603125 3.0928125 8.3603125 3.1875 6.6875 C3.35597914 3.07873917 3.35597914 3.07873917 1.5 1.0625 C1.005 0.711875 0.51 0.36125 0 0 Z " fill="#BA5941" transform="translate(54,43)"/>
<path d="M0 0 C-0.41317222 4.82034262 -2.38019915 6.90992611 -6 10 C-6.66 10 -7.32 10 -8 10 C-7.67 8.68 -7.34 7.36 -7 6 C-6.34 6 -5.68 6 -5 6 C-5.33 4.68 -5.66 3.36 -6 2 C-2.25 0 -2.25 0 0 0 Z " fill="#F9D1E1" transform="translate(30,43)"/>
<path d="M0 0 C0.33 0 0.66 0 1 0 C2.342 7.442 2.342 7.442 0.8125 9.9375 C-1.12625153 11.07400952 -2.79091886 11.61912394 -5 12 C-5 14.64 -5 17.28 -5 20 C-7.29633824 16.55549263 -7.54016485 14.06187717 -8 10 C-5.69 9.34 -3.38 8.68 -1 8 C-0.67 5.36 -0.34 2.72 0 0 Z " fill="#F0E0C8" transform="translate(61,47)"/>
<path d="M0 0 C1 3 1 3 0 6 C-1.66666667 7.66666667 -3.33333333 9.33333333 -5 11 C-6.29519995 13.16620544 -6.29519995 13.16620544 -7 15 C-7 13.68 -7 12.36 -7 11 C-7.66 10.67 -8.32 10.34 -9 10 C-7.625 8.5 -7.625 8.5 -6 7 C-5.34 7 -4.68 7 -4 7 C-3.34 5.35 -2.68 3.7 -2 2 C-1.34 2 -0.68 2 0 2 C0 1.34 0 0.68 0 0 Z " fill="#F5C6C9" transform="translate(47,38)"/>
<path d="M0 0 C0 0.66 0 1.32 0 2 C-1.65 2.33 -3.3 2.66 -5 3 C-5 3.66 -5 4.32 -5 5 C-5.99 5.495 -5.99 5.495 -7 6 C-7.33 6.99 -7.66 7.98 -8 9 C-8.99 8.67 -9.98 8.34 -11 8 C-10.67 7.01 -10.34 6.02 -10 5 C-9.34 5 -8.68 5 -8 5 C-7.87625 4.360625 -7.7525 3.72125 -7.625 3.0625 C-7.41875 2.381875 -7.2125 1.70125 -7 1 C-4.53721199 -0.231394 -2.7204945 -0.07159196 0 0 Z " fill="#F9C2BE" transform="translate(31,26)"/>
<path d="M0 0 C2.875 -0.1875 2.875 -0.1875 6 0 C8 3 8 3 8 6 C8.66 6 9.32 6 10 6 C10.33 7.98 10.66 9.96 11 12 C10.01 12 9.02 12 8 12 C7.67 9.36 7.34 6.72 7 4 C6.34 4 5.68 4 5 4 C5 3.01 5 2.02 5 1 C3.35 1 1.7 1 0 1 C0 0.67 0 0.34 0 0 Z " fill="#ECE9CE" transform="translate(43,58)"/>
<path d="M0 0 C4 4.875 4 4.875 4 6 C-0.29 6 -4.58 6 -9 6 C-8.34 5.01 -7.68 4.02 -7 3 C-7 3.66 -7 4.32 -7 5 C-5.35 5 -3.7 5 -2 5 C-2 4.01 -2 3.02 -2 2 C-1.34 2 -0.68 2 0 2 C0 1.34 0 0.68 0 0 Z " fill="#D25043" transform="translate(52,50)"/>
<path d="M0 0 C1 3 1 3 -0.5625 6.625 C-2.35248284 9.60830474 -2.70890524 9.91603036 -6.25 10.9375 C-7.1575 10.958125 -8.065 10.97875 -9 11 C-9 10.34 -9 9.68 -9 9 C-4.61538462 6 -4.61538462 6 -2 6 C-1.34 4.02 -0.68 2.04 0 0 Z " fill="#DABFCB" transform="translate(30,44)"/>
<path d="M0 0 C1.98 0 3.96 0 6 0 C5.67 1.32 5.34 2.64 5 4 C3.35 4.33 1.7 4.66 0 5 C0 3.35 0 1.7 0 0 Z " fill="#FCE65E" transform="translate(28,32)"/>
<path d="M0 0 C0.99 0 1.98 0 3 0 C3 0.99 3 1.98 3 3 C4.32 3.66 5.64 4.32 7 5 C6.34 6.32 5.68 7.64 5 9 C4.67 8.01 4.34 7.02 4 6 C3.01 5.67 2.02 5.34 1 5 C0.67 3.35 0.34 1.7 0 0 Z " fill="#F2D7D1" transform="translate(57,38)"/>
<path d="M0 0 C0.99 0.66 1.98 1.32 3 2 C2.45276317 5.37462715 1.9451 7.08235 0 10 C-0.66 8.68 -1.32 7.36 -2 6 C-1.34 6 -0.68 6 0 6 C0 4.02 0 2.04 0 0 Z " fill="#F2DFE8" transform="translate(49,26)"/>
<path d="M0 0 C3.10551666 3.10551666 3.81323934 4.89198233 5 9 C4.01 9 3.02 9 2 9 C1.34 6.03 0.68 3.06 0 0 Z " fill="#7D895C" transform="translate(52,61)"/>
<path d="M0 0 C0.144375 0.598125 0.28875 1.19625 0.4375 1.8125 C0.8872439 3.56150404 1.42892341 5.28677023 2 7 C1.34 7.66 0.68 8.32 0 9 C-0.66 8.34 -1.32 7.68 -2 7 C-1.43181818 1.43181818 -1.43181818 1.43181818 0 0 Z " fill="#99403E" transform="translate(43,46)"/>
<path d="M0 0 C0 1.65 0 3.3 0 5 C-2.31 5.66 -4.62 6.32 -7 7 C-7 6.34 -7 5.68 -7 5 C-1.4047619 0 -1.4047619 0 0 0 Z " fill="#FCE6F1" transform="translate(14,27)"/>
<path d="M0 0 C0.66 0.33 1.32 0.66 2 1 C1.67 4.63 1.34 8.26 1 12 C0.67 12 0.34 12 0 12 C-0.19477739 10.37585622 -0.38059458 8.75063577 -0.5625 7.125 C-0.66691406 6.22007813 -0.77132812 5.31515625 -0.87890625 4.3828125 C-1 2 -1 2 0 0 Z " fill="#B27C6A" transform="translate(60,43)"/>
<path d="M0 0 C0 1.32 0 2.64 0 4 C-3 6 -3 6 -6 6 C-6 4 -6 4 -4.125 1.875 C-2 0 -2 0 0 0 Z " fill="#C08D5A" transform="translate(39,33)"/>
<path d="M0 0 C2.97 0 5.94 0 9 0 C7.375 1.5625 7.375 1.5625 5 3 C1.75 2.6875 1.75 2.6875 -1 2 C-0.67 1.34 -0.34 0.68 0 0 Z " fill="#FAE8F3" transform="translate(33,10)"/>
<path d="M0 0 C-0.33 1.32 -0.66 2.64 -1 4 C-1.66 4 -2.32 4 -3 4 C-3.33 4.99 -3.66 5.98 -4 7 C-5 5 -5 5 -4.6875 2.9375 C-3.74042307 0.26846502 -2.76591243 0 0 0 Z " fill="#F6DBDD" transform="translate(35,42)"/>
</svg>
